HIERARCHY
ROOT Hips
{
	OFFSET 0.000000 0.000000 0.000000 
	CHANNELS 6 Xposition Yposition Zposition Zrotation Yrotation Xrotation
	JOINT LeftUpLeg
	{
		OFFSET 1.363060 -1.794630 0.839290 
		CHANNELS 3 Zrotation Yrotation Xrotation
		JOINT LeftLeg
		{
			OFFSET 2.448110 -6.726130 0.000000 
			CHANNELS 3 Zrotation Yrotation Xrotation
			JOINT LeftFoot
			{
				OFFSET 2.562200 -7.039590 0.000000 
				CHANNELS 3 Zrotation Yrotation Xrotation
				JOINT LeftToeBase
				{
					OFFSET 0.157640 -0.433110 2.322550 
					CHANNELS 3 Zrotation Yrotation Xrotation
					End Site
					{
						OFFSET 0.000000 0.000000 0.000000 
					}
				}
			}
		}
	}
	JOINT RightUpLeg
	{
		OFFSET -1.305520 -1.794630 0.839290 
		CHANNELS 3 Zrotation Yrotation Xrotation
		JOINT RightLeg
		{
			OFFSET -2.542530 -6.985550 0.000000 
			CHANNELS 3 Zrotation Yrotation Xrotation
			JOINT RightFoot
			{
				OFFSET -2.568260 -7.056230 0.000000 
				CHANNELS 3 Zrotation Yrotation Xrotation
				JOINT RightToeBase
				{
					OFFSET -0.164730 -0.452590 2.363150 
					CHANNELS 3 Zrotation Yrotation Xrotation
					End Site
					{
						OFFSET 0.000000 0.000000 0.000000 
					}
				}
			}
		}
	}
	JOINT Spine
	{
		OFFSET 0.028270 2.035590 -0.193380 
		CHANNELS 3 Zrotation Yrotation Xrotation
		JOINT Spine1
		{
			OFFSET 0.056720 2.048850 -0.042750 
			CHANNELS 3 Zrotation Yrotation Xrotation
			JOINT Neck1
			{
				OFFSET -0.054170 1.746240 0.172020 
				CHANNELS 3 Zrotation Yrotation Xrotation
				JOINT Head
				{
					OFFSET 0.104070 1.761360 -0.123970 
					CHANNELS 3 Zrotation Yrotation Xrotation
					End Site
					{
						OFFSET 0.000000 0.000000 0.000000 
					}
				}
			}
			JOINT LeftArm
			{
				OFFSET 3.362410 1.200890 -0.311210 
				CHANNELS 3 Zrotation Yrotation Xrotation
				JOINT LeftForeArm
				{
					OFFSET 4.983000 -0.000000 -0.000000 
					CHANNELS 3 Zrotation Yrotation Xrotation
					JOINT LeftHand
					{
						OFFSET 3.483560 -0.000000 -0.000000 
						CHANNELS 3 Zrotation Yrotation Xrotation
						JOINT LeftHandIndex1
						{
							OFFSET 0.715260 -0.000000 -0.000000 
							CHANNELS 3 Zrotation Yrotation Xrotation
							End Site
							{
								OFFSET 0.000000 0.000000 0.000000 
							}
						}
					}
				}
			}
			JOINT RightArm
			{
				OFFSET -3.136600 1.374050 -0.404650 
				CHANNELS 3 Zrotation Yrotation Xrotation
				JOINT RightForeArm
				{
					OFFSET -5.241900 -0.000000 -0.000000 
					CHANNELS 3 Zrotation Yrotation Xrotation
					JOINT RightHand
					{
						OFFSET -3.444170 -0.000000 -0.000000 
						CHANNELS 3 Zrotation Yrotation Xrotation
						JOINT RightHandIndex1
						{
							OFFSET -0.622530 -0.000000 -0.000000 
							CHANNELS 3 Zrotation Yrotation Xrotation
							End Site
							{
								OFFSET 0.000000 0.000000 0.000000 
							}
						}
					}
				}
			}
		}
	}
}
MOTION
Frames: 6
Frame Time: 0.041667
-13.320509 17.549746 -0.925924 -2.063461 10.697983 2.941174 -11.076979 -3.511521 -9.967059 1.726765 10.643882 28.658930 1.482636 -17.849227 -9.137673 0.000900 0.196000 0.538400 19.875963 -3.994367 -10.937467 -2.158807 -11.574981 31.031397 -0.507583 -2.433514 -16.482807 -0.159900 -2.576200 7.101000 1.882206 -3.760304 -4.293332 4.421336 -1.815613 -1.545904 2.998260 -5.883419 15.539475 2.863800 -3.800300 10.975300 -92.339914 0.283362 38.885448 14.617936 -25.346565 -3.315922 0.142490 0.569903 0.416433 -7.125000 0.000000 0.000000 85.104811 -6.013684 25.129446 -12.477495 20.389095 -2.525139 0.325945 -0.136357 -7.177444 7.125000 0.000000 0.000000 
-13.326580 17.549746 -0.940595 -2.401190 11.566509 2.952575 -10.617160 -3.582682 -10.280371 1.774984 10.695827 28.844375 1.571395 -18.042363 -9.809349 0.024500 -1.010600 -2.778000 20.394098 -3.998520 -11.034775 -2.112705 -11.517150 30.842318 -0.367534 -3.223612 -16.627818 -0.163000 -2.601100 7.170100 1.923052 -3.642098 -4.323408 4.310924 -1.755446 -1.670771 2.784756 -5.373818 15.821059 2.768900 -3.586900 11.041400 -92.414238 0.221081 39.038092 14.816769 -25.601530 -3.389993 0.131476 0.574417 -0.080643 -7.125000 0.000000 0.000000 84.984320 -6.421794 25.527218 -12.710405 20.724162 -2.611201 0.322161 -0.122554 -7.288987 7.125000 0.000000 0.000000 
-13.327288 17.549241 -0.952939 -2.537319 12.646789 2.906413 -10.391265 -3.790888 -10.382721 1.821613 10.746004 29.011599 1.631326 -18.526341 -10.291101 0.060700 -1.589700 -4.373200 20.643506 -4.507028 -11.227300 -2.097456 -11.498967 30.782914 -0.264985 -3.800018 -16.745143 -0.141800 -2.427000 6.687200 1.991806 -3.656868 -4.357480 4.393187 -1.763279 -1.712564 2.386207 -5.045412 16.358040 2.529200 -3.471600 11.442400 -92.639413 0.199220 39.294828 15.080022 -25.953401 -3.498199 0.133361 0.587763 -0.769448 -7.125000 0.000000 0.000000 84.613311 -6.796684 26.341905 -13.092737 21.252694 -2.753958 0.319710 -0.111916 -7.870527 7.125000 0.000000 0.000000 
-13.328705 17.549544 -0.972265 -2.804284 13.621336 2.827455 -10.044736 -3.714340 -10.554963 1.874240 10.804417 29.195592 1.735512 -18.850596 -11.088013 0.171500 -2.668000 -7.355700 21.005281 -5.134304 -11.506243 -2.085953 -11.480133 30.723938 -0.190168 -4.175749 -16.727322 -0.122900 -2.259800 6.224200 2.085908 -3.721805 -4.371074 4.505973 -1.793856 -1.797003 2.292527 -4.529643 16.564028 2.531700 -3.266100 11.537800 -92.821581 0.166104 39.483190 15.374910 -26.350275 -3.624189 0.134944 0.604661 -1.416643 -7.125000 0.000000 0.000000 84.241963 -7.071849 27.189216 -13.357380 21.619287 -2.854426 0.326988 -0.105514 -8.227682 7.125000 0.000000 0.000000 
-13.325062 17.549645 -0.992401 -2.884752 14.415427 2.865276 -9.967825 -3.347098 -10.966691 1.927806 10.886645 29.449660 1.887724 -18.552429 -12.281310 0.454200 -4.323500 -11.988500 21.094594 -5.690430 -11.852646 -2.071282 -11.448608 30.633235 -0.150373 -4.349816 -16.659625 -0.131200 -2.334900 6.432100 2.085244 -3.654349 -4.375395 4.330998 -1.761993 -1.836496 2.022062 -3.963844 16.779370 2.374800 -3.014500 11.608000 -92.773328 0.000276 39.712001 15.565537 -26.588193 -3.698337 0.118948 0.610986 -1.485502 -7.125000 0.000000 0.000000 84.145311 -7.229956 27.636925 -13.429708 21.714022 -2.880066 0.342226 -0.102894 -8.393013 7.125000 0.000000 0.000000 
-13.324556 17.549544 -1.009905 -3.064749 15.210561 2.830003 -9.783392 -3.008758 -11.379790 2.003959 11.002697 29.823895 1.997521 -18.258911 -13.116880 0.618500 -5.033000 -14.002800 21.367331 -5.890404 -11.932957 -2.034084 -11.397853 30.465006 -0.037021 -4.960619 -16.751596 -0.134300 -2.362100 6.507400 2.068353 -3.425145 -4.310696 4.080739 -1.655433 -1.693709 1.954275 -3.489552 16.997051 2.329900 -2.789700 11.769500 -92.761286 -0.374119 40.027133 15.779905 -26.843715 -3.776717 0.101627 0.609611 -1.118782 -7.125000 0.000000 0.000000 84.132210 -7.177939 27.782228 -13.557029 21.882207 -2.927433 0.356773 -0.090047 -8.731957 7.125000 0.000000 0.000000 
